<?xml version="1.0" standalone="no"?>
<!DOCTYPE svg PUBLIC "-//W3C//DTD SVG 20010904//EN"
 "http://www.w3.org/TR/2001/REC-SVG-20010904/DTD/svg10.dtd">
<svg version="1.0" xmlns="http://www.w3.org/2000/svg"
 width="450.000000pt" height="450.000000pt" viewBox="0 0 450.000000 450.000000"
 preserveAspectRatio="xMidYMid meet">
<metadata>
Created by potrace 1.16, written by Peter Selinger 2001-2019
</metadata>
<g transform="translate(0.000000,450.000000) scale(0.100000,-0.100000)"
fill="#000000" stroke="none">
<path d="M1985 3703 c-27 -2 -53 -8 -58 -12 -4 -4 9 -39 28 -78 102 -206 71
-273 -182 -402 -180 -91 -255 -142 -316 -216 -75 -89 -113 -185 -133 -328 l-6
-48 -82 -41 c-320 -160 -419 -355 -331 -653 5 -17 -5 -28 -50 -59 -136 -94
-260 -278 -300 -443 -26 -106 -18 -250 18 -319 54 -106 131 -166 273 -213 155
-51 198 -53 1399 -53 966 0 1125 2 1226 16 388 54 546 218 485 505 -40 188
-215 436 -379 539 -52 32 -58 39 -53 61 22 94 26 143 16 188 -22 97 -79 164
-198 231 -46 26 -97 61 -113 79 -36 42 -58 114 -69 230 -6 53 -18 112 -29 136
-41 89 -151 163 -283 191 -37 8 -71 17 -77 21 -23 13 -44 71 -66 179 -53 261
-193 421 -420 481 -56 14 -173 17 -300 8z m-73 -1102 c75 -29 108 -45 108 -53
0 -4 4 -8 10 -8 13 0 50 -32 50 -43 0 -4 -5 -5 -12 -1 -7 4 -8 3 -4 -4 4 -6
14 -8 22 -5 13 5 15 1 10 -15 -5 -15 1 -25 24 -42 16 -12 30 -29 30 -38 0 -15
-2 -15 -11 -2 -9 12 -9 11 -4 -5 4 -11 10 -28 12 -37 3 -10 9 -16 13 -13 5 3
6 -14 3 -37 -4 -29 -3 -39 5 -34 8 5 12 -1 12 -16 0 -19 -2 -20 -11 -8 -7 11
-9 -2 -7 -48 3 -34 1 -57 -4 -50 -5 9 -8 9 -8 1 0 -6 -3 -20 -6 -30 -5 -15 -4
-15 5 -3 9 13 11 13 11 -2 0 -10 -7 -18 -15 -18 -16 0 -16 -1 -20 -38 -3 -26
-44 -74 -56 -66 -5 3 -6 -1 -4 -8 7 -17 -94 -84 -149 -99 -22 -6 -74 -9 -116
-7 -92 4 -186 45 -243 107 -41 45 -53 68 -62 125 -5 29 -9 36 -16 25 -5 -8 -9
-9 -9 -4 0 6 -3 21 -5 35 -5 22 -4 22 4 5 9 -18 10 -18 10 7 1 15 -3 30 -9 33
-13 8 -3 107 15 142 8 15 15 35 14 43 0 8 -6 2 -14 -15 -17 -37 -19 -29 -4 14
7 20 16 30 25 27 9 -3 11 0 7 11 -4 11 -2 14 5 9 8 -5 10 -2 6 9 -12 31 92
119 176 148 49 18 176 22 212 8z m878 -23 c63 -32 133 -94 124 -110 -4 -6 -2
-8 4 -4 6 3 13 2 17 -4 3 -5 2 -10 -4 -10 -12 0 28 -83 45 -93 8 -4 14 -13 14
-18 0 -6 -4 -7 -10 -4 -5 3 -8 0 -5 -7 4 -13 12 -62 19 -133 l5 -40 -9 35 c-8
30 -8 27 -5 -20 3 -32 1 -49 -4 -42 -7 11 -10 10 -15 -3 -3 -9 -3 -22 1 -27 3
-7 1 -8 -5 -4 -7 4 -12 5 -12 2 0 -2 -3 -13 -6 -23 -5 -15 -4 -16 6 -3 9 13
11 12 7 -5 -2 -11 -8 -19 -14 -18 -6 1 -19 -8 -29 -20 -17 -19 -17 -20 -1 -8
36 28 26 3 -17 -41 -65 -68 -141 -101 -240 -106 -95 -5 -160 15 -239 74 -54
39 -110 120 -103 147 2 9 0 15 -4 12 -5 -3 -9 3 -9 12 -1 10 -4 60 -8 111 -5
50 -5 92 -1 92 4 0 7 15 6 33 -3 83 104 197 230 244 23 8 69 12 122 11 69 -3
95 -8 140 -30z m-1294 -953 c-3 -8 0 -18 7 -22 7 -5 33 -44 57 -87 52 -91 156
-202 247 -264 34 -23 66 -42 71 -42 5 0 3 19 -5 41 -7 23 -15 60 -17 83 -2 22
-2 33 1 24 6 -25 23 -22 25 5 0 12 4 2 8 -23 4 -25 8 -34 8 -20 l2 25 327 -3
c181 -1 338 0 351 3 12 3 22 13 23 23 0 9 3 12 5 6 5 -12 -17 -113 -31 -146
-11 -27 4 -22 67 20 109 72 201 171 260 279 23 42 38 59 45 52 6 -6 9 1 7 23
-2 18 -1 25 2 16 3 -10 9 -18 14 -18 24 0 -45 -141 -107 -223 -64 -83 -197
-185 -291 -222 -22 -9 -64 -39 -93 -67 -79 -75 -144 -101 -249 -102 -75 0 -93
4 -151 32 -36 17 -84 50 -105 72 -22 24 -70 55 -111 75 -112 52 -173 98 -258
196 -16 18 -34 41 -40 50 -28 46 -73 137 -79 162 -7 28 0 67 11 67 3 0 3 -7
-1 -15z"/>
<path d="M1735 2431 c-168 -78 -164 -314 7 -385 132 -56 288 50 288 194 0 148
-162 253 -295 191z"/>
<path d="M2554 2431 c-165 -75 -166 -306 -2 -381 117 -53 253 10 287 133 48
170 -126 320 -285 248z"/>
</g>
</svg>
